<svg xmlns="http://www.w3.org/2000/svg" width="250" height="250" viewBox="0 0 250 250" fill="none">
<path d="M250 125C250 194.036 194.036 250 125 250C55.9644 250 0 194.036 0 125C0 55.9644 55.9644 0 125 0C194.036 0 250 55.9644 250 125ZM37.5 125C37.5 173.325 76.6751 212.5 125 212.5C173.325 212.5 212.5 173.325 212.5 125C212.5 76.6751 173.325 37.5 125 37.5C76.6751 37.5 37.5 76.6751 37.5 125Z" fill="#A6D2FF"/>
<path d="M125 0C143.4 2.1942e-07 161.573 4.06221 178.222 11.8966C194.871 19.731 209.585 31.1444 221.314 45.322L192.42 69.2254C184.21 59.3011 173.91 51.3117 162.256 45.8276C150.601 40.3435 137.88 37.5 125 37.5V0Z" fill="#117CEB"/>
</svg>