<svg xmlns="http://www.w3.org/2000/svg" width="250" height="250" viewBox="0 0 250 250" fill="none">
<path d="M250 125C250 194.036 194.036 250 125 250C55.9644 250 0 194.036 0 125C0 55.9644 55.9644 0 125 0C194.036 0 250 55.9644 250 125ZM37.5 125C37.5 173.325 76.6751 212.5 125 212.5C173.325 212.5 212.5 173.325 212.5 125C212.5 76.6751 173.325 37.5 125 37.5C76.6751 37.5 37.5 76.6751 37.5 125Z" fill="#A6D2FF"/>
<path d="M125 0C158.152 3.95334e-07 189.946 13.1696 213.388 36.6116C236.83 60.0537 250 91.8479 250 125C250 158.152 236.83 189.946 213.388 213.388C189.946 236.83 158.152 250 125 250V212.5C148.206 212.5 170.462 203.281 186.872 186.872C203.281 170.462 212.5 148.206 212.5 125C212.5 101.794 203.281 79.5376 186.872 63.1282C170.462 46.7187 148.206 37.5 125 37.5V0Z" fill="#117CEB"/>
</svg>