<svg xmlns="http://www.w3.org/2000/svg" width="250" height="250" viewBox="0 0 250 250" fill="none">
<path d="M250 125C250 194.036 194.036 250 125 250C55.9644 250 0 194.036 0 125C0 55.9644 55.9644 0 125 0C194.036 0 250 55.9644 250 125ZM37.5 125C37.5 173.325 76.6751 212.5 125 212.5C173.325 212.5 212.5 173.325 212.5 125C212.5 76.6751 173.325 37.5 125 37.5C76.6751 37.5 37.5 76.6751 37.5 125Z" fill="#A6D2FF"/>
<path d="M125 0C157.133 3.83178e-07 188.031 12.3742 211.281 34.5538C234.532 56.7334 248.348 87.0147 249.861 119.112C251.375 151.209 240.47 182.656 219.41 206.925C198.35 231.194 168.754 246.421 136.764 249.445L133.234 212.112C155.627 209.995 176.345 199.336 191.087 182.348C205.829 165.359 213.462 143.346 212.403 120.878C211.343 98.4103 201.672 77.2134 185.397 61.6876C169.122 46.1619 147.493 37.5 125 37.5V0Z" fill="#117CEB"/>
</svg>