<svg xmlns="http://www.w3.org/2000/svg" width="250" height="250" viewBox="0 0 250 250" fill="none">
<path d="M250 125C250 194.036 194.036 250 125 250C55.9644 250 0 194.036 0 125C0 55.9644 55.9644 0 125 0C194.036 0 250 55.9644 250 125ZM37.5 125C37.5 173.325 76.6751 212.5 125 212.5C173.325 212.5 212.5 173.325 212.5 125C212.5 76.6751 173.325 37.5 125 37.5C76.6751 37.5 37.5 76.6751 37.5 125Z" fill="#A6D2FF"/>
<path d="M125 0C153.077 3.34819e-07 180.337 9.45286 202.387 26.8354C224.436 44.2179 239.992 68.5178 246.546 95.8193C253.101 123.121 250.273 151.834 238.518 177.332C226.763 202.831 206.766 223.629 181.749 236.376C156.732 249.123 128.152 253.076 100.614 247.598C73.0758 242.121 48.184 227.531 29.9492 206.181C11.7145 184.831 1.19867 157.963 0.0963693 129.907C-1.00594 101.852 7.36943 74.2419 23.8729 51.5268L54.211 73.5688C42.6586 89.4693 36.7958 108.796 37.5675 128.435C38.3391 148.074 45.7001 166.882 58.4645 181.827C71.2288 196.772 88.6531 206.984 107.93 210.819C127.206 214.653 147.212 211.886 164.724 202.963C182.236 194.04 196.234 179.482 204.463 161.633C212.691 143.784 214.671 123.685 210.082 104.574C205.494 85.4624 194.605 68.4525 179.171 56.2848C163.736 44.117 144.654 37.5 125 37.5V0Z" fill="#117CEB"/>
</svg>